%TF.GenerationSoftware,KiCad,Pcbnew,9.0.4*%
%TF.CreationDate,2025-08-23T19:45:08-04:00*%
%TF.ProjectId,DWMCBoardV3,44574d43-426f-4617-9264-56332e6b6963,rev?*%
%TF.SameCoordinates,Original*%
%TF.FileFunction,Legend,Top*%
%TF.FilePolarity,Positive*%
%FSLAX46Y46*%
G04 Gerber Fmt 4.6, Leading zero omitted, Abs format (unit mm)*
G04 Created by KiCad (PCBNEW 9.0.4) date 2025-08-23 19:45:08*
%MOMM*%
%LPD*%
G01*
G04 APERTURE LIST*
%ADD10C,0.120000*%
G04 APERTURE END LIST*
%TO.C,R3*%
D10*
X63690000Y-101370000D02*
X57150000Y-101370000D01*
X57150000Y-98630000D01*
X63690000Y-98630000D01*
X63690000Y-101370000D01*
X56380000Y-100000000D02*
X57150000Y-100000000D01*
X64460000Y-100000000D02*
X63690000Y-100000000D01*
%TO.C,J3*%
X70730000Y-87620000D02*
X73380000Y-87620000D01*
X73380000Y-90380000D02*
X73380000Y-87620000D01*
X70730000Y-90380000D02*
X70730000Y-87620000D01*
X70730000Y-90380000D02*
X73380000Y-90380000D01*
X69460000Y-90380000D02*
X68080000Y-90380000D01*
X68080000Y-90380000D02*
X68080000Y-89000000D01*
%TO.C,R2*%
X64540000Y-94500000D02*
X63770000Y-94500000D01*
X56460000Y-94500000D02*
X57230000Y-94500000D01*
X63770000Y-95870000D02*
X57230000Y-95870000D01*
X57230000Y-93130000D01*
X63770000Y-93130000D01*
X63770000Y-95870000D01*
%TO.C,R1*%
X64540000Y-89000000D02*
X63770000Y-89000000D01*
X56460000Y-89000000D02*
X57230000Y-89000000D01*
X63770000Y-90370000D02*
X57230000Y-90370000D01*
X57230000Y-87630000D01*
X63770000Y-87630000D01*
X63770000Y-90370000D01*
%TO.C,Q1*%
X73350000Y-100030000D02*
X73350000Y-96430000D01*
X73338478Y-100068478D02*
G75*
G02*
X68899999Y-98230000I-1838478J1838478D01*
G01*
X68900000Y-98230000D02*
G75*
G02*
X73338478Y-96391522I2600000J0D01*
G01*
%TO.C,J2*%
X51880000Y-101540000D02*
X50500000Y-101540000D01*
X51880000Y-100160000D02*
X51880000Y-101540000D01*
X51880000Y-98890000D02*
X51880000Y-88620000D01*
X51880000Y-98890000D02*
X49120000Y-98890000D01*
X51880000Y-88620000D02*
X49120000Y-88620000D01*
X49120000Y-98890000D02*
X49120000Y-88620000D01*
%TO.C,J1*%
X43620000Y-91080000D02*
X45000000Y-91080000D01*
X43620000Y-92460000D02*
X43620000Y-91080000D01*
X43620000Y-93730000D02*
X43620000Y-96380000D01*
X43620000Y-93730000D02*
X46380000Y-93730000D01*
X43620000Y-96380000D02*
X46380000Y-96380000D01*
X46380000Y-93730000D02*
X46380000Y-96380000D01*
%TD*%
M02*
