%TF.GenerationSoftware,KiCad,Pcbnew,9.0.4*%
%TF.CreationDate,2025-08-23T19:45:08-04:00*%
%TF.ProjectId,DWMCBoardV3,44574d43-426f-4617-9264-56332e6b6963,rev?*%
%TF.SameCoordinates,Original*%
%TF.FileFunction,Copper,L1,Top*%
%TF.FilePolarity,Positive*%
%FSLAX46Y46*%
G04 Gerber Fmt 4.6, Leading zero omitted, Abs format (unit mm)*
G04 Created by KiCad (PCBNEW 9.0.4) date 2025-08-23 19:45:08*
%MOMM*%
%LPD*%
G01*
G04 APERTURE LIST*
%ADD10C,0.187500*%
%TA.AperFunction,NonConductor*%
%ADD11C,0.187500*%
%TD*%
%TA.AperFunction,ComponentPad*%
%ADD12C,1.600000*%
%TD*%
%TA.AperFunction,ComponentPad*%
%ADD13C,1.700000*%
%TD*%
%TA.AperFunction,ComponentPad*%
%ADD14R,1.700000X1.700000*%
%TD*%
%TA.AperFunction,ComponentPad*%
%ADD15R,1.500000X1.050000*%
%TD*%
%TA.AperFunction,ComponentPad*%
%ADD16O,1.500000X1.050000*%
%TD*%
%TA.AperFunction,Conductor*%
%ADD17C,0.200000*%
%TD*%
G04 APERTURE END LIST*
D10*
D11*
X53980497Y-85806678D02*
X53980497Y-84306678D01*
X53980497Y-84306678D02*
X54337640Y-84306678D01*
X54337640Y-84306678D02*
X54551926Y-84378107D01*
X54551926Y-84378107D02*
X54694783Y-84520964D01*
X54694783Y-84520964D02*
X54766212Y-84663821D01*
X54766212Y-84663821D02*
X54837640Y-84949535D01*
X54837640Y-84949535D02*
X54837640Y-85163821D01*
X54837640Y-85163821D02*
X54766212Y-85449535D01*
X54766212Y-85449535D02*
X54694783Y-85592392D01*
X54694783Y-85592392D02*
X54551926Y-85735250D01*
X54551926Y-85735250D02*
X54337640Y-85806678D01*
X54337640Y-85806678D02*
X53980497Y-85806678D01*
X55337640Y-84306678D02*
X55694783Y-85806678D01*
X55694783Y-85806678D02*
X55980497Y-84735250D01*
X55980497Y-84735250D02*
X56266212Y-85806678D01*
X56266212Y-85806678D02*
X56623355Y-84306678D01*
X57194783Y-85806678D02*
X57194783Y-84306678D01*
X57194783Y-84306678D02*
X57694783Y-85378107D01*
X57694783Y-85378107D02*
X58194783Y-84306678D01*
X58194783Y-84306678D02*
X58194783Y-85806678D01*
X59766212Y-85663821D02*
X59694784Y-85735250D01*
X59694784Y-85735250D02*
X59480498Y-85806678D01*
X59480498Y-85806678D02*
X59337641Y-85806678D01*
X59337641Y-85806678D02*
X59123355Y-85735250D01*
X59123355Y-85735250D02*
X58980498Y-85592392D01*
X58980498Y-85592392D02*
X58909069Y-85449535D01*
X58909069Y-85449535D02*
X58837641Y-85163821D01*
X58837641Y-85163821D02*
X58837641Y-84949535D01*
X58837641Y-84949535D02*
X58909069Y-84663821D01*
X58909069Y-84663821D02*
X58980498Y-84520964D01*
X58980498Y-84520964D02*
X59123355Y-84378107D01*
X59123355Y-84378107D02*
X59337641Y-84306678D01*
X59337641Y-84306678D02*
X59480498Y-84306678D01*
X59480498Y-84306678D02*
X59694784Y-84378107D01*
X59694784Y-84378107D02*
X59766212Y-84449535D01*
X61337641Y-84306678D02*
X61837641Y-85806678D01*
X61837641Y-85806678D02*
X62337641Y-84306678D01*
X62694783Y-84306678D02*
X63623355Y-84306678D01*
X63623355Y-84306678D02*
X63123355Y-84878107D01*
X63123355Y-84878107D02*
X63337640Y-84878107D01*
X63337640Y-84878107D02*
X63480498Y-84949535D01*
X63480498Y-84949535D02*
X63551926Y-85020964D01*
X63551926Y-85020964D02*
X63623355Y-85163821D01*
X63623355Y-85163821D02*
X63623355Y-85520964D01*
X63623355Y-85520964D02*
X63551926Y-85663821D01*
X63551926Y-85663821D02*
X63480498Y-85735250D01*
X63480498Y-85735250D02*
X63337640Y-85806678D01*
X63337640Y-85806678D02*
X62909069Y-85806678D01*
X62909069Y-85806678D02*
X62766212Y-85735250D01*
X62766212Y-85735250D02*
X62694783Y-85663821D01*
D12*
%TO.P,R3,2*%
%TO.N,Net-(J2-Pin_3)*%
X55340000Y-100000000D03*
%TO.P,R3,1*%
%TO.N,GND1*%
X65500000Y-100000000D03*
%TD*%
D13*
%TO.P,J3,2,Pin_2*%
%TO.N,Net-(J3-Pin_2)*%
X72000000Y-89000000D03*
D14*
%TO.P,J3,1,Pin_1*%
%TO.N,Net-(J2-Pin_5)*%
X69460000Y-89000000D03*
%TD*%
D12*
%TO.P,R2,1*%
%TO.N,Net-(Q1-B)*%
X65580000Y-94500000D03*
%TO.P,R2,2*%
%TO.N,Net-(J2-Pin_4)*%
X55420000Y-94500000D03*
%TD*%
%TO.P,R1,1*%
%TO.N,Net-(J2-Pin_5)*%
X65580000Y-89000000D03*
%TO.P,R1,2*%
%TO.N,Net-(J1-Pin_2)*%
X55420000Y-89000000D03*
%TD*%
D15*
%TO.P,Q1,1,E*%
%TO.N,GND1*%
X71500000Y-99500000D03*
D16*
%TO.P,Q1,2,B*%
%TO.N,Net-(Q1-B)*%
X71500000Y-98230000D03*
%TO.P,Q1,3,C*%
%TO.N,Net-(J3-Pin_2)*%
X71500000Y-96960000D03*
%TD*%
D14*
%TO.P,J2,1,Pin_1*%
%TO.N,Net-(J1-Pin_2)*%
X50500000Y-100160000D03*
D13*
%TO.P,J2,2,Pin_2*%
%TO.N,GND1*%
X50500000Y-97620000D03*
%TO.P,J2,3,Pin_3*%
%TO.N,Net-(J2-Pin_3)*%
X50500000Y-95080000D03*
%TO.P,J2,4,Pin_4*%
%TO.N,Net-(J2-Pin_4)*%
X50500000Y-92540000D03*
%TO.P,J2,5,Pin_5*%
%TO.N,Net-(J2-Pin_5)*%
X50500000Y-90000000D03*
%TD*%
D14*
%TO.P,J1,1,Pin_1*%
%TO.N,GND1*%
X45000000Y-92460000D03*
D13*
%TO.P,J1,2,Pin_2*%
%TO.N,Net-(J1-Pin_2)*%
X45000000Y-95000000D03*
%TD*%
D17*
%TO.N,Net-(J1-Pin_2)*%
X50160000Y-100160000D02*
X50500000Y-100160000D01*
X45000000Y-95000000D02*
X50160000Y-100160000D01*
X43849000Y-93849000D02*
X45000000Y-95000000D01*
X43849000Y-91309000D02*
X43849000Y-93849000D01*
X54620001Y-88200001D02*
X46957999Y-88200001D01*
X46957999Y-88200001D02*
X43849000Y-91309000D01*
X55420000Y-89000000D02*
X54620001Y-88200001D01*
%TO.N,GND1*%
X48792240Y-92460000D02*
X50023240Y-93691000D01*
X45000000Y-92460000D02*
X48792240Y-92460000D01*
%TO.N,Net-(J2-Pin_5)*%
X51350000Y-90850000D02*
X63730000Y-90850000D01*
X63730000Y-90850000D02*
X65580000Y-89000000D01*
X50500000Y-90000000D02*
X51350000Y-90850000D01*
X69460000Y-89000000D02*
X65580000Y-89000000D01*
%TO.N,Net-(J3-Pin_2)*%
X72000000Y-96460000D02*
X71500000Y-96960000D01*
X72000000Y-89000000D02*
X72000000Y-96460000D01*
%TO.N,GND1*%
X51651000Y-94365240D02*
X50976760Y-93691000D01*
X50976760Y-93691000D02*
X50023240Y-93691000D01*
X50500000Y-97620000D02*
X51651000Y-96469000D01*
X51651000Y-96469000D02*
X51651000Y-94365240D01*
X66000000Y-99500000D02*
X65500000Y-100000000D01*
X71500000Y-99500000D02*
X66000000Y-99500000D01*
%TO.N,Net-(Q1-B)*%
X69310000Y-98230000D02*
X65580000Y-94500000D01*
X71500000Y-98230000D02*
X69310000Y-98230000D01*
%TO.N,GND1*%
X63120000Y-97620000D02*
X65500000Y-100000000D01*
X50500000Y-97620000D02*
X63120000Y-97620000D01*
%TO.N,Net-(J2-Pin_3)*%
X49349000Y-98096760D02*
X49349000Y-96231000D01*
X50023240Y-98771000D02*
X49349000Y-98096760D01*
X49349000Y-96231000D02*
X50500000Y-95080000D01*
X54111000Y-98771000D02*
X50023240Y-98771000D01*
X55340000Y-100000000D02*
X54111000Y-98771000D01*
%TO.N,Net-(J2-Pin_4)*%
X52460000Y-94500000D02*
X50500000Y-92540000D01*
X55420000Y-94500000D02*
X52460000Y-94500000D01*
%TO.N,GND1*%
X50500000Y-97620000D02*
X50099000Y-97219000D01*
%TO.N,Net-(J2-Pin_5)*%
X69380000Y-89080000D02*
X69460000Y-89000000D01*
%TO.N,Net-(J3-Pin_2)*%
X71735000Y-89265000D02*
X72000000Y-89000000D01*
%TO.N,Net-(J2-Pin_4)*%
X55340000Y-94420000D02*
X55420000Y-94500000D01*
%TD*%
M02*
